<?xml version="1.0" encoding="UTF-8" standalone="no"?><svg xmlns="http://www.w3.org/2000/svg" xmlns:xlink="http://www.w3.org/1999/xlink" contentScriptType="text/ecmascript" fill="#000000" width="48" zoomAndPan="magnify" contentStyleType="text/css" viewBox="1.0 6.5 48.0 37.0" height="37" preserveAspectRatio="xMidYMid meet" version="1"><g><g id="change1_1"><path fill="#a0695c" d="M25.7 43.5L24.3 43.5 22.6 17.3 27.4 17.3z"/></g><g id="change1_2"><path fill="#a0695c" d="M47.4 35.9L46.2 36.3 37.1 14.6 41.2 13.2z"/></g><g id="change1_3"><path fill="#a0695c" d="M2.6 35.9L3.8 36.3 12.9 14.6 8.8 13.2z"/></g><g id="change2_1"><path fill="#e6ad77" d="M49,14.1c0,1.2-0.9,2.3-2.5,3.3c-0.2,0.1-0.4,0.2-0.6,0.4c-1.8,1-4.3,1.9-7.3,2.5c-0.3,0.1-0.7,0.2-1,0.2 c-3.6,0.7-7.8,1.1-12.3,1.1H25c-0.5,0-1,0-1.6,0c-11.2-0.2-20.4-2.9-22.1-6.3c-0.1-0.2-0.2-0.4-0.2-0.6C1,14.5,1,14.3,1,14.1 c0-1.2,0.9-2.3,2.4-3.3c0.2-0.1,0.4-0.2,0.6-0.4c1.8-1,4.3-1.9,7.3-2.5c0.3-0.1,0.7-0.2,1-0.2c3.5-0.7,7.7-1.1,12.2-1.1H25 c0.5,0,0.9,0,1.4,0C37.7,6.7,47,9.4,48.7,12.9c0.1,0.2,0.2,0.4,0.2,0.6C49,13.7,49,13.9,49,14.1z"/></g><g id="change3_1"><path fill="#cc895a" d="M1,14c0,4.2,10.7,7.6,24,7.6s24-3.4,24-7.6v3.3c0,4.2-10.7,7.6-24,7.6S1,21.5,1,17.3"/></g><g><g id="change3_2"><path fill="#cc895a" d="M25.3,21.6H25c-0.5,0-1,0-1.6,0L1.3,15.3c-0.1-0.2-0.2-0.4-0.2-0.6L25.3,21.6z"/></g></g><g><g id="change3_5"><path fill="#cc895a" d="M38.6,20.3c-0.3,0.1-0.7,0.2-1,0.2L3.4,10.7c0.2-0.1,0.4-0.2,0.6-0.4L38.6,20.3z"/></g></g><g><g id="change3_3"><path fill="#cc895a" d="M46.5,17.4c-0.2,0.1-0.4,0.2-0.6,0.4L11.3,7.9c0.3-0.1,0.7-0.2,1-0.2L46.5,17.4z"/></g></g><g><g id="change3_4"><path fill="#cc895a" d="M48.9,13.5l-24.4-7H25c0.5,0,0.9,0,1.4,0l22.3,6.4C48.8,13.1,48.9,13.3,48.9,13.5z"/></g></g></g></svg>