<?xml version="1.0" encoding="UTF-8" standalone="no"?><svg xmlns="http://www.w3.org/2000/svg" xmlns:xlink="http://www.w3.org/1999/xlink" contentScriptType="text/ecmascript" fill="#000000" width="36" zoomAndPan="magnify" contentStyleType="text/css" viewBox="0.0 0.0 36.0 36.0" height="36" preserveAspectRatio="xMidYMid meet" version="1"><g id="change1_1"><path fill="#d79e84" d="M35 36H1c-.55 0-1-.45-1-1V1c0-.55.45-1 1-1h34c.55 0 1 .45 1 1v34c0 .55-.45 1-1 1z"/></g><g id="change2_1"><path fill="#cc895a" d="M1 36h34c.55 0 1-.45 1-1V1c0-.275-.112-.525-.294-.706L.294 35.706C.475 35.888.725 36 1 36z"/></g><g id="change3_1"><path fill="#8ccaf7" d="M2 2h32v32H2z"/></g><g id="change4_1"><path fill="#ffffff" opacity="0.5" d="M2 34V2h32z"/></g><g id="change2_2"><path fill="#cc895a" d="M17 2h2v32h-2z"/></g><g id="change2_3"><path fill="#cc895a" d="M2 19v-2h32v2z"/></g></svg>